<?xml version="1.0" standalone="no"?>
<!DOCTYPE svg PUBLIC "-//W3C//DTD SVG 20010904//EN"
 "http://www.w3.org/TR/2001/REC-SVG-20010904/DTD/svg10.dtd">
<svg version="1.0" xmlns="http://www.w3.org/2000/svg"
 width="771.000000pt" height="979.000000pt" viewBox="0 0 771.000000 979.000000"
 preserveAspectRatio="xMidYMid meet">

<g transform="translate(0.000000,979.000000) scale(0.100000,-0.100000)"
fill="#df6c20" stroke="none">
<path d="M3515 9779 c-1089 -40 -2094 -286 -2735 -669 -438 -262 -690 -569
-762 -930 -11 -53 -13 -678 -13 -3275 l0 -3210 23 -90 c27 -102 101 -265 160
-351 414 -606 1514 -1064 2893 -1203 580 -59 1189 -61 1749 -5 740 73 1445
255 1932 500 237 119 417 244 579 401 208 202 325 414 359 648 14 102 14 6410
-1 6530 -111 911 -1539 1578 -3539 1655 -288 11 -331 11 -645 -1z m725 -619
c644 -33 1222 -130 1705 -287 627 -203 1048 -488 1129 -762 21 -72 20 -115 -4
-192 -118 -382 -899 -769 -1895 -939 -453 -77 -784 -104 -1310 -104 -612 -1
-1040 40 -1564 149 -892 186 -1561 550 -1665 904 -21 71 -20 116 2 189 85 270
508 554 1127 755 686 223 1613 331 2475 287z m-3246 -2346 c1051 -522 2767
-701 4273 -444 671 115 1254 313 1685 573 70 42 130 77 133 77 3 0 4 -276 3
-612 l-3 -613 -40 -75 c-79 -151 -284 -319 -548 -451 -516 -259 -1215 -419
-2054 -470 -256 -15 -929 -7 -1163 15 -643 61 -1182 174 -1650 347 -181 67
-470 210 -605 300 -156 103 -308 256 -361 363 l-39 80 -3 563 -3 562 113 -70
c62 -39 180 -104 262 -145z m-257 -1900 c910 -571 2494 -849 4038 -708 936 85
1768 332 2288 678 l28 19 -3 -594 -3 -594 -35 -70 c-67 -136 -268 -309 -510
-438 -833 -447 -2354 -619 -3720 -421 -1019 147 -1864 504 -2123 897 -79 119
-77 100 -77 734 0 309 3 563 6 563 3 0 53 -30 111 -66z m-25 -2067 c528 -340
1314 -588 2208 -697 325 -39 525 -52 922 -57 536 -8 922 16 1371 83 703 105
1351 316 1774 577 50 32 94 57 97 57 4 0 5 -264 4 -588 l-3 -587 -34 -70 c-45
-93 -198 -247 -331 -334 -995 -651 -3178 -806 -4774 -340 -254 75 -462 156
-676 265 -316 160 -526 336 -613 514 l-32 65 -3 583 c-1 320 0 582 2 582 3 0
43 -24 88 -53z"/>
</g>
</svg>
