<?xml version="1.0" standalone="no"?>
<!DOCTYPE svg PUBLIC "-//W3C//DTD SVG 20010904//EN"
 "http://www.w3.org/TR/2001/REC-SVG-20010904/DTD/svg10.dtd">
<svg version="1.0" xmlns="http://www.w3.org/2000/svg"
 width="512.000000pt" height="512.000000pt" viewBox="0 0 512.000000 512.000000"
 preserveAspectRatio="xMidYMid meet">

<g transform="translate(0.000000,512.000000) scale(0.100000,-0.100000)"
fill="#000000" stroke="none">
<path d="M1441 4547 c-399 -183 -726 -337 -728 -342 -4 -13 1450 -855 1476
-855 15 0 560 311 1405 803 l69 40 -34 17 c-53 28 -1456 670 -1460 669 -2 0
-330 -150 -728 -332z m1357 -92 c309 -142 562 -262 562 -265 0 -4 -266 -157
-591 -339 -446 -251 -596 -331 -609 -324 -57 28 -1150 658 -1150 663 0 3 48
28 108 55 59 27 323 149 586 271 445 206 482 222 505 210 15 -7 279 -129 589
-271z"/>
<path d="M2045 4599 c-71 -34 -132 -63 -134 -65 -2 -2 36 -22 85 -45 49 -22
91 -43 93 -45 3 -3 -44 -54 -105 -115 l-109 -110 75 31 c41 17 167 69 280 115
113 46 223 91 245 100 39 17 40 17 24 -1 -8 -11 -53 -64 -99 -119 -46 -55 -93
-111 -104 -124 -12 -13 -16 -21 -10 -18 22 13 407 168 409 165 2 -2 -53 -73
-121 -158 -69 -85 -144 -180 -169 -211 l-44 -56 103 -54 103 -53 318 176 319
177 -95 44 c-52 24 -279 130 -506 235 -226 106 -415 192 -420 192 -4 -1 -66
-28 -138 -61z"/>
<path d="M1493 4342 c-172 -81 -313 -150 -313 -153 0 -3 225 -133 499 -288
l499 -282 146 81 c80 45 146 85 146 88 0 4 -52 35 -115 70 l-114 63 102 127
c57 70 106 132 110 138 5 9 -102 -33 -410 -163 -28 -11 -7 17 102 142 62 72
112 131 111 133 -2 1 -59 -21 -127 -49 -68 -28 -223 -91 -344 -140 l-220 -90
203 204 203 203 -72 32 c-39 18 -77 32 -83 31 -6 0 -152 -67 -323 -147z"/>
<path d="M3980 4058 c-1129 -683 -1718 -1043 -1732 -1056 -17 -14 -18 -69 -16
-911 1 -493 5 -824 8 -736 4 125 6 144 10 87 l5 -73 83 61 c45 34 83 69 84 79
1 9 5 -22 8 -69 5 -62 7 -20 9 150 2 129 7 395 10 590 7 323 7 302 7 -242 0
-328 2 -600 6 -603 3 -3 295 209 648 471 354 262 656 483 672 491 15 8 30 24
33 36 2 12 23 276 45 587 22 311 42 574 45 585 2 11 2 -50 0 -135 -2 -85 0
-132 4 -103 3 28 15 61 25 72 11 12 15 21 11 21 -4 0 0 9 10 20 10 11 15 20
11 20 -4 0 2 12 12 28 18 25 50 106 56 143 1 8 7 24 14 36 7 12 19 46 26 75
14 51 15 51 17 18 3 -51 15 50 30 253 9 110 10 170 3 177 -7 7 -56 -18 -144
-72z m-60 -323 c6 -8 10 -22 7 -32 -4 -14 -5 -14 -6 4 -2 37 -19 36 -84 -4
-79 -50 -94 -58 -84 -47 10 11 140 93 148 94 4 0 12 -7 19 -15z m-180 -89 c0
-4 -99 -68 -140 -91 -38 -21 7 13 68 52 70 45 72 45 72 39z m177 -78 c-2 -18
-4 -6 -4 27 0 33 2 48 4 33 2 -15 2 -42 0 -60z m-367 -43 c0 -2 -10 -9 -22
-15 -22 -11 -22 -10 -4 4 21 17 26 19 26 11z m-65 -41 c-26 -20 -55 -36 -55
-30 0 5 63 46 70 46 3 -1 -4 -8 -15 -16z m-80 -50 c-26 -20 -55 -36 -55 -30 0
5 63 46 70 46 3 -1 -4 -8 -15 -16z m-80 -50 c-26 -20 -55 -36 -55 -30 0 5 63
46 70 46 3 -1 -4 -8 -15 -16z m-80 -50 c-26 -20 -55 -36 -55 -30 0 5 63 46 70
46 3 -1 -4 -8 -15 -16z m-80 -50 c-26 -20 -55 -36 -55 -30 0 5 63 46 70 46 3
-1 -4 -8 -15 -16z m-95 -59 c0 -2 -10 -9 -22 -15 -22 -11 -22 -10 -4 4 21 17
26 19 26 11z m-80 -50 c0 -2 -10 -9 -22 -15 -22 -11 -22 -10 -4 4 21 17 26 19
26 11z m-80 -50 c0 -2 -10 -9 -22 -15 -22 -11 -22 -10 -4 4 21 17 26 19 26 11z
m819 -95 c-20 -72 -20 -76 -3 -138 l18 -65 -23 -18 c-28 -23 -41 -17 -42 19
-1 20 -4 14 -13 -20 -7 -29 -20 -54 -33 -63 -28 -20 -28 -22 -2 78 18 73 19
88 8 141 -12 57 -12 59 12 77 24 18 24 18 30 -4 6 -20 8 -18 14 11 6 28 42 68
52 59 1 -2 -6 -37 -18 -77z m-119 -40 c25 -16 18 -161 -11 -234 -28 -69 -69
-107 -94 -86 -8 7 -15 24 -16 39 0 19 -6 10 -21 -31 -14 -42 -32 -68 -65 -98
-25 -22 -50 -40 -55 -40 -9 0 -6 117 8 312 l6 77 46 31 c34 23 48 27 59 19 15
-13 17 -86 3 -123 -7 -18 -5 -33 5 -53 l15 -28 0 37 c0 53 37 144 67 168 29
23 32 23 53 10z m-289 -251 c-7 -113 -7 -175 -1 -177 17 -6 11 -38 -10 -57
-33 -30 -53 -13 -46 43 3 26 8 112 12 192 5 132 8 146 27 162 12 9 23 15 25
13 2 -1 -2 -81 -7 -176z m-864 29 c-3 -7 -5 -2 -5 12 0 14 2 19 5 13 2 -7 2
-19 0 -25z m791 -88 c2 -25 1 -86 -3 -137 -6 -81 -9 -93 -27 -99 -12 -3 -31
-18 -43 -32 -14 -16 -28 -23 -38 -19 -38 14 -9 146 42 191 19 18 30 66 14 66
-4 0 -17 -10 -30 -22 l-23 -21 0 24 c0 32 63 102 87 97 13 -2 19 -14 21 -48z
m-139 -178 c-8 -143 -18 -178 -46 -168 -7 3 -13 2 -13 -2 0 -5 -9 -18 -21 -31
-17 -18 -23 -20 -36 -9 -22 18 -11 253 14 280 9 10 20 18 24 18 4 0 5 -49 2
-110 -4 -76 -3 -110 5 -110 15 0 20 22 27 143 6 93 10 109 28 122 11 8 22 14
23 12 1 -1 -2 -67 -7 -145z m-652 56 c-2 -13 -4 -5 -4 17 -1 22 1 32 4 23 2
-10 2 -28 0 -40z m500 17 c-4 -26 -2 -35 9 -35 18 0 18 -20 0 -45 -7 -11 -16
-60 -20 -109 -6 -78 -5 -88 8 -83 27 10 19 -37 -10 -64 -24 -23 -26 -23 -39
-6 -10 13 -12 45 -9 115 2 53 1 89 -2 80 -3 -10 -9 -18 -14 -18 -15 0 -29 -60
-36 -153 -7 -87 -18 -115 -46 -117 -3 0 -4 60 -1 133 5 136 19 184 49 173 8
-3 14 1 14 9 0 8 11 22 25 31 17 11 26 28 31 62 8 57 11 62 31 62 12 0 14 -7
10 -35z m-167 -81 c0 -33 -17 -64 -35 -64 -18 0 -20 42 -5 71 15 28 40 24 40
-7z m-65 -91 c-4 -32 -17 -125 -30 -208 -22 -139 -26 -151 -52 -172 -15 -13
-31 -23 -34 -23 -7 0 -15 81 -25 250 -7 105 -7 106 18 122 l26 17 7 -127 c9
-146 17 -136 36 47 8 72 18 123 27 134 27 31 35 20 27 -40z m55 -65 c0 -35 -3
-100 -7 -146 -5 -68 -10 -85 -25 -93 -11 -6 -21 -9 -23 -7 -9 9 14 280 25 293
23 27 30 16 30 -47z"/>
<path d="M3552 2913 c-14 -28 -24 -137 -14 -163 l9 -24 12 23 c17 31 27 166
13 175 -6 4 -15 -1 -20 -11z"/>
<path d="M3407 2903 c-4 -3 -7 -27 -7 -52 1 -43 2 -45 15 -27 25 33 17 105 -8
79z"/>
<path d="M3400 2735 c-12 -32 -13 -105 -2 -105 25 0 44 111 22 125 -6 3 -15
-6 -20 -20z"/>
<path d="M3182 2532 c-7 -13 -12 -35 -10 -50 l3 -27 13 23 c7 13 12 35 10 50
l-3 27 -13 -23z"/>
<path d="M464 3736 c-7 -19 95 -1409 104 -1417 25 -23 1348 -999 1353 -999 2
0 2 343 -1 762 l-5 763 -650 407 c-870 546 -795 500 -801 484z m279 -727 c83
-63 122 -134 122 -219 0 -48 -3 -55 -20 -58 -34 -4 -146 96 -176 157 -45 91
-47 171 -4 171 7 0 42 -23 78 -51z m198 -154 c75 -61 109 -114 109 -170 0 -28
-4 -35 -19 -35 -19 0 -19 -2 4 -42 30 -53 32 -67 4 -42 -19 17 -109 172 -109
188 0 4 17 -6 37 -23 46 -38 57 -39 48 -4 -8 35 -14 42 -68 80 l-43 32 13 -86
c8 -47 11 -88 8 -91 -13 -14 -26 21 -40 109 -8 52 -17 104 -20 117 -3 12 -2
22 1 22 4 0 38 -25 75 -55z m276 -310 c34 -83 63 -154 63 -159 0 -16 -38 25
-44 47 -3 12 -22 33 -41 47 -35 25 -74 80 -57 80 5 0 21 -9 35 -20 l25 -20
-21 54 c-12 30 -24 53 -28 50 -3 -2 -12 -24 -19 -49 -14 -51 -25 -62 -44 -45
-20 15 31 172 54 168 9 -2 40 -63 77 -153z m136 -11 c31 -25 57 -49 57 -54 0
-22 -21 -17 -63 16 -48 37 -67 38 -67 1 1 -44 38 -103 91 -147 30 -24 58 -47
63 -51 5 -4 6 -15 2 -24 -5 -14 -15 -9 -61 27 -68 52 -125 155 -125 223 0 71
22 73 103 9z m94 -76 c6 -7 16 -54 23 -105 l13 -92 65 -52 c63 -50 65 -51 56
-23 -4 16 -8 49 -8 74 -1 73 22 68 153 -36 2 -2 1 -11 -3 -20 -5 -14 -13 -10
-51 21 -31 25 -51 35 -63 30 -18 -7 -13 -13 86 -95 27 -22 39 -39 34 -47 -5
-8 -23 0 -59 28 -29 21 -54 39 -57 39 -18 0 44 -75 90 -110 48 -36 70 -70 45
-70 -17 0 -111 82 -132 116 -15 25 -24 32 -30 23 -5 -9 -22 -1 -64 31 -82 63
-90 77 -104 177 -7 48 -15 96 -17 106 -6 20 9 23 23 5z m343 -284 c13 -34 13
-39 -4 -25 -17 14 -28 51 -15 51 5 0 14 -12 19 -26z"/>
<path d="M670 2975 c0 -20 9 -53 19 -74 24 -46 128 -128 143 -113 14 14 3 69
-21 109 -20 31 -114 113 -132 113 -5 0 -9 -16 -9 -35z"/>
<path d="M4015 2189 l-7 -99 -864 -663 c-476 -364 -877 -670 -892 -679 -15
-10 -46 -18 -69 -18 -37 0 -54 9 -130 67 -48 37 -299 229 -558 427 -801 614
-909 697 -930 708 -28 16 19 -37 209 -236 88 -92 176 -192 195 -222 22 -35 49
-105 78 -206 71 -249 167 -420 322 -577 167 -168 355 -269 601 -324 76 -16
129 -20 265 -20 258 0 398 30 586 123 275 137 484 319 638 555 35 55 86 127
111 160 26 33 66 92 88 130 49 83 153 248 162 255 3 3 26 32 51 65 70 92 113
179 154 305 34 107 36 122 33 216 -2 76 -7 104 -19 117 -15 15 -17 8 -24 -84z
m-2863 -808 c65 -36 254 -180 498 -380 254 -208 398 -310 473 -335 154 -51
446 26 652 172 190 135 408 337 460 426 15 25 33 46 40 46 7 0 16 6 18 13 3 6
6 2 6 -11 1 -31 -34 -132 -73 -211 -25 -49 -32 -75 -29 -99 4 -25 -2 -45 -26
-83 -17 -28 -25 -47 -18 -43 7 5 7 1 -3 -12 -30 -41 -53 -63 -60 -59 -4 3 -16
-5 -26 -18 l-19 -22 24 20 c46 39 15 -1 -39 -50 -37 -33 -44 -37 -21 -13 27
30 35 46 36 80 0 24 5 50 10 58 11 17 13 19 -101 -67 -202 -153 -477 -241
-762 -244 -65 -1 -107 -4 -96 -6 13 -2 28 -19 39 -43 19 -42 22 -44 145 -61
35 -5 -9 -7 -120 -5 -148 3 -190 8 -271 29 -244 64 -444 187 -592 362 -76 91
-141 221 -135 273 3 23 -6 68 -24 124 -27 84 -48 215 -31 192 4 -7 25 -21 45
-33z"/>
</g>
</svg>
